<svg width="60" height="60" viewBox="0 0 60 60" fill="none" xmlns="http://www.w3.org/2000/svg">
<g clip-path="url(#clip0)">
<path d="M46.2497 23.749H11.2489C9.18128 23.749 7.49878 25.4315 7.49878 27.4991V29.9991C7.49878 38.9193 12.4264 47.0095 20.3565 51.1121C20.9691 51.4271 21.724 51.1896 22.0416 50.5746C22.3566 49.962 22.1191 49.2071 21.5041 48.8895C14.4089 45.2195 9.9988 37.9818 9.9988 29.999V27.499C9.9988 26.809 10.5589 26.2489 11.2489 26.2489H46.2497C46.9397 26.2489 47.4998 26.809 47.4998 27.499V29.999C47.4998 37.9817 43.0897 45.2193 35.9921 48.8869C35.377 49.2044 35.1395 49.9595 35.4545 50.572C35.6771 51.002 36.1145 51.2495 36.567 51.2495C36.762 51.2495 36.957 51.2045 37.1395 51.1094C45.0722 47.0093 49.9998 38.9217 49.9998 29.9989V27.4989C49.9998 25.4315 48.3172 23.749 46.2497 23.749Z" fill="#25BB41"/>
<path d="M57.4072 49.5196C57.2122 49.0521 56.7571 48.7471 56.2522 48.7471H1.25091C0.745934 48.7471 0.290884 49.0521 0.0958797 49.5196C-0.0991249 49.9871 0.00833857 50.5246 0.365886 50.8822L3.16849 53.6872C4.82357 55.3397 7.01854 56.2498 9.35614 56.2498H48.142C50.4796 56.2498 52.6772 55.3398 54.3347 53.6872L57.1373 50.8822C57.4947 50.5246 57.6022 49.9871 57.4072 49.5196ZM52.5647 51.9196C51.3847 53.0996 49.8121 53.7497 48.1446 53.7497H9.35614C7.68864 53.7497 6.11606 53.0996 4.93607 51.9196L4.26609 51.2497H53.2346L52.5647 51.9196Z" fill="#25BB41"/>
<path d="M57.5823 29.6516C54.2148 27.4865 48.8347 29.8367 48.2321 30.1091C47.6045 30.3966 47.3246 31.1366 47.612 31.7667C47.8995 32.3967 48.6371 32.6742 49.2696 32.3867C50.4746 31.8392 54.3397 30.5417 56.2297 31.7592C57.0823 32.3067 57.4997 33.3692 57.4997 34.9992C57.4997 40.0043 47.4045 43.0295 43.5068 43.7744L42.6218 43.9494C41.9443 44.0819 41.5043 44.7394 41.6368 45.417C41.7544 46.0119 42.2768 46.4245 42.8618 46.4245C42.9419 46.4245 43.0218 46.417 43.1043 46.3995L43.9818 46.227C44.6368 46.1019 59.9997 43.0895 59.9997 34.9992C59.9999 32.4842 59.1849 30.6866 57.5823 29.6516Z" fill="#25BB41"/>
<path d="M38.482 13.2788C40.5145 10.7387 40.5145 6.76114 38.482 4.22104C38.0494 3.68103 37.2669 3.59102 36.7245 4.02603C36.1844 4.45858 36.0969 5.24352 36.5295 5.78354C37.817 7.39104 37.817 10.1087 36.527 11.7212C34.492 14.2613 34.492 18.2389 36.527 20.779C36.7745 21.0889 37.137 21.249 37.5045 21.249C37.7769 21.249 38.0545 21.159 38.2845 20.974C38.8245 20.5414 38.9121 19.7539 38.4795 19.2165C37.1895 17.6089 37.1895 14.8913 38.482 13.2788Z" fill="#25BB41"/>
<path d="M30.9718 13.2789C33.0068 10.7388 33.0068 6.7612 30.9718 4.2211C30.5418 3.68109 29.7543 3.59355 29.2143 4.0261C28.6743 4.45865 28.5868 5.24617 29.0193 5.7836C30.3093 7.3911 30.3093 10.1087 29.0168 11.7213C26.9843 14.2614 26.9843 18.2389 29.0168 20.779C29.2643 21.089 29.6268 21.2491 29.9943 21.2491C30.2668 21.2491 30.5418 21.1591 30.7743 20.974C31.3144 20.5415 31.4019 19.7565 30.9693 19.2165C29.6818 17.6089 29.6818 14.8914 30.9718 13.2789Z" fill="#25BB41"/>
<path d="M23.4817 13.2812C25.5143 10.7411 25.5143 6.76358 23.4817 4.22348C23.0517 3.68347 22.2667 3.59347 21.7242 4.02848C21.1867 4.45845 21.0992 5.24597 21.5292 5.78352C22.8168 7.39102 22.8168 10.1087 21.5267 11.7212C19.4917 14.2613 19.4917 18.2388 21.5267 20.7789C21.7743 21.0889 22.1367 21.249 22.5042 21.249C22.7767 21.249 23.0542 21.159 23.2843 20.9765C23.8243 20.544 23.9118 19.7565 23.4793 19.219C22.1892 17.6088 22.1892 14.8938 23.4817 13.2812Z" fill="#25BB41"/>
</g>
<defs>
<clipPath id="clip0">
<rect width="60" height="60" fill="white"/>
</clipPath>
</defs>
</svg>
