<svg width="60" height="60" viewBox="0 0 60 60" fill="none" xmlns="http://www.w3.org/2000/svg">
<path d="M38.75 17.5H16.25C15.56 17.5 15 18.06 15 18.75C15 19.44 15.56 20.0001 16.25 20.0001H38.75C39.44 20.0001 40.0001 19.44 40.0001 18.75C40.0001 18.06 39.44 17.5 38.75 17.5Z" fill="#25BB41"/>
<path d="M8.75 45C6.68246 45 5 46.6825 5 48.75C5 50.8175 6.68246 52.5 8.75 52.5C10.8175 52.5 12.5 50.8175 12.5 48.75C12.5 46.6825 10.8174 45 8.75 45ZM8.75 50C8.06 50 7.49996 49.44 7.49996 48.75C7.49996 48.06 8.06 47.5 8.75 47.5C9.44 47.5 9.99992 48.06 9.99992 48.75C9.99992 49.44 9.44 50 8.75 50Z" fill="#25BB41"/>
<path d="M8.75 35C6.68246 35 5 36.6825 5 38.75C5 40.8175 6.68246 42.5 8.75 42.5C10.8175 42.5 12.5 40.8175 12.5 38.75C12.5 36.6825 10.8174 35 8.75 35ZM8.75 39.9999C8.06 39.9999 7.49996 39.4399 7.49996 38.7499C7.49996 38.0599 8.06 37.5 8.75 37.5C9.44 37.5 10 38.06 10 38.75C10 39.44 9.44 39.9999 8.75 39.9999Z" fill="#25BB41"/>
<path d="M8.75 25C6.68246 25 5 26.6825 5 28.75C5 30.8175 6.68246 32.5 8.75 32.5C10.8175 32.5 12.5 30.8175 12.5 28.75C12.5 26.6826 10.8174 25 8.75 25ZM8.75 30C8.06 30 7.49996 29.44 7.49996 28.75C7.49996 28.06 8.06 27.5 8.75 27.5C9.44 27.5 10 28.06 10 28.75C10 29.44 9.44 30 8.75 30Z" fill="#25BB41"/>
<path d="M8.75 15C6.68246 15 5 16.6825 5 18.75C5 20.8175 6.68246 22.5 8.75 22.5C10.8175 22.5 12.5 20.8175 12.5 18.75C12.5 16.6825 10.8174 15 8.75 15ZM8.75 20C8.06 20 7.49996 19.44 7.49996 18.75C7.49996 18.06 8.06 17.5 8.75 17.5C9.44 17.5 9.99992 18.06 9.99992 18.75C9.99992 19.44 9.44 20 8.75 20Z" fill="#25BB41"/>
<path d="M53.445 12.5C51.695 12.5 50.05 13.1825 48.8125 14.42L45.3649 17.8676L45 18.2325V8.75004C45 6.6825 43.3175 5.00004 41.25 5.00004H34.77C34.2525 3.5475 32.8775 2.50008 31.25 2.50008H26.8151C25.9325 0.975 24.295 0 22.5 0C20.705 0 19.0675 0.975 18.185 2.49996H13.7501C12.1226 2.49996 10.7476 3.5475 10.2301 4.99992H3.75C1.68246 4.99992 0 6.68238 0 8.74992V56.25C0 58.3175 1.68246 60 3.75 60H41.25C43.3175 60 45 58.3175 45 56.25V36.765L54.625 27.14C54.6274 27.1376 54.63 27.1376 54.6325 27.135C54.6349 27.1325 54.6349 27.13 54.6375 27.1275L58.08 23.685C59.32 22.4475 60 20.8025 60 19.05C60 15.4375 57.06 12.5 53.445 12.5ZM12.5 6.24996C12.5 5.55996 13.0601 4.99992 13.7501 4.99992H18.98C19.5075 4.99992 19.98 4.66488 20.1575 4.16742C20.5125 3.16992 21.455 2.49996 22.5 2.49996C23.545 2.49996 24.4875 3.16992 24.8425 4.16742C25.02 4.66746 25.4925 4.99992 26.02 4.99992H31.2499C31.9399 4.99992 32.5 5.55996 32.5 6.24996V7.5H12.5V6.24996ZM42.5 56.25C42.5 56.94 41.94 57.5 41.25 57.5H3.75C3.06 57.5 2.49996 56.94 2.49996 56.25V8.75004C2.49996 8.06004 3.06 7.5 3.75 7.5H9.99996V8.75004C9.99996 9.44004 10.56 10.0001 11.25 10.0001H33.75C34.44 10.0001 35 9.44004 35 8.75004V7.5H41.25C41.94 7.5 42.5 8.06004 42.5 8.75004V20.7326L35.5751 27.6575C35.4001 27.5651 35.21 27.5 35 27.5H16.25C15.56 27.5 15 28.0601 15 28.7501C15 29.4401 15.56 30 16.25 30H33.2325L25.7325 37.5H16.25C15.56 37.5 15 38.06 15 38.75C15 39.44 15.56 40.0001 16.25 40.0001H24.65L22.775 47.5001H16.25C15.56 47.5001 15 48.0601 15 48.7501C15 49.4401 15.56 50.0002 16.25 50.0002H23.75C23.8526 50.0002 23.9525 49.9876 24.0525 49.9602L34.0525 47.4602C34.0825 47.4527 34.1025 47.4252 34.1325 47.4152C34.29 47.3627 34.4325 47.2827 34.555 47.1777C34.5775 47.1577 34.6125 47.1552 34.635 47.1327L42.5 39.2652V56.25ZM27.18 40.1925C27.9875 40.4275 29.1825 40.9475 30.365 42.1325C31.55 43.3175 32.0726 44.5151 32.3075 45.32L25.4675 47.0325L27.18 40.1925ZM34.4125 43.8175C34.005 42.7875 33.3274 41.56 32.13 40.365C30.9375 39.1725 29.7125 38.4925 28.6825 38.0875L46.2499 20.52L51.98 26.25L34.4125 43.8175ZM56.3125 21.9175L53.7475 24.4825L48.0175 18.7525L50.5825 16.185C51.3475 15.4175 52.365 14.9975 53.4499 14.9975C55.6825 14.9975 57.4999 16.815 57.4999 19.0526C57.5 20.135 57.0775 21.1525 56.3125 21.9175Z" fill="#25BB41"/>
</svg>
