<svg width="40" height="40" viewBox="0 0 40 40" fill="none" xmlns="http://www.w3.org/2000/svg">
<g clip-path="url(#clip0)">
<path d="M20 0.833496C8.95 0.833496 0 9.6335 0 20.4868C0 29.1718 5.73 36.5368 13.675 39.1335C14.675 39.3185 15.0417 38.7102 15.0417 38.1885C15.0417 37.7218 15.025 36.4852 15.0167 34.8468C9.45333 36.0318 8.28 32.2102 8.28 32.2102C7.37 29.9418 6.055 29.3352 6.055 29.3352C4.24333 28.1168 6.195 28.1418 6.195 28.1418C8.20333 28.2785 9.25833 30.1668 9.25833 30.1668C11.0417 33.1718 13.94 32.3035 15.0833 31.8018C15.2633 30.5302 15.7783 29.6652 16.35 29.1735C11.9083 28.6818 7.24 26.9918 7.24 19.4618C7.24 17.3168 8.015 15.5635 9.29833 14.1885C9.07333 13.6918 8.39833 11.6935 9.47333 8.98683C9.47333 8.98683 11.1483 8.46016 14.9733 11.0018C16.5733 10.5652 18.2733 10.3485 19.9733 10.3385C21.6733 10.3485 23.3733 10.5652 24.9733 11.0018C28.7733 8.46016 30.4483 8.98683 30.4483 8.98683C31.5233 11.6935 30.8483 13.6918 30.6483 14.1885C31.9233 15.5635 32.6983 17.3168 32.6983 19.4618C32.6983 27.0118 28.0233 28.6735 23.5733 29.1568C24.2733 29.7468 24.9233 30.9518 24.9233 32.7935C24.9233 35.4235 24.8983 37.5368 24.8983 38.1752C24.8983 38.6902 25.2483 39.3052 26.2733 39.1085C34.275 36.5285 40 29.1585 40 20.4868C40 9.6335 31.045 0.833496 20 0.833496Z" fill="#25BB41"/>
</g>
<defs>
<clipPath id="clip0">
<rect width="40" height="40" fill="white"/>
</clipPath>
</defs>
</svg>
