<svg width="35" height="35" viewBox="0 0 35 35" fill="none" xmlns="http://www.w3.org/2000/svg">
<path d="M33.5417 18.928H1.45833C0.653331 18.928 0 18.2747 0 17.4697C0 16.6647 0.653331 16.0114 1.45833 16.0114H33.5417C34.3467 16.0114 35 16.6647 35 17.4697C35 18.2747 34.3467 18.928 33.5417 18.928Z" fill="white"/>
<path d="M33.5417 7.74736H1.45833C0.653331 7.74736 0 7.09402 0 6.28902C0 5.48402 0.653331 4.83069 1.45833 4.83069H33.5417C34.3467 4.83069 35 5.48402 35 6.28902C35 7.09402 34.3467 7.74736 33.5417 7.74736Z" fill="white"/>
<path d="M33.5417 30.1084H1.45833C0.653331 30.1084 0 29.4551 0 28.6501C0 27.8451 0.653331 27.1918 1.45833 27.1918H33.5417C34.3467 27.1918 35 27.8451 35 28.6501C35 29.4551 34.3467 30.1084 33.5417 30.1084Z" fill="white"/>
</svg>
