<svg width="60" height="60" viewBox="0 0 60 60" fill="none" xmlns="http://www.w3.org/2000/svg">
<path d="M59.9593 2.45158C60.2518 0.885046 58.9169 -0.435832 57.6147 0.135825L1.13085 24.9436C0.451054 25.2422 0.00140955 25.9918 3.3079e-06 26.829C-0.00140293 27.6662 0.445663 28.4179 1.12452 28.7195L16.9919 35.7701V57.9775C16.9919 58.9143 17.551 59.7284 18.3432 59.945C19.1301 60.1604 19.9506 59.7296 20.3195 58.8876L26.8821 43.9048L42.8973 57.5791C43.8715 58.411 45.2717 57.882 45.6262 56.5452C60.5791 0.140277 59.9327 2.59328 59.9593 2.45158ZM46.0163 9.55927L18.5006 32.1045L6.66147 26.8439L46.0163 9.55927ZM20.5075 35.4257L44.4918 15.774C23.8537 40.8231 24.9315 39.5047 24.8415 39.6441C24.7078 39.851 25.0742 39.0444 20.5075 49.4704V35.4257ZM42.9907 52.622L28.8936 40.5854L54.383 9.64825L42.9907 52.622Z" fill="#25BB41"/>
</svg>
