<svg width="60" height="60" viewBox="0 0 60 60" fill="none" xmlns="http://www.w3.org/2000/svg">
<g clip-path="url(#clip0)">
<path d="M56 12C53.7939 12 52 13.794 52 16C52 18.2059 53.794 19.9999 56 19.9999C58.2059 19.9999 59.9999 18.206 59.9999 16C59.9999 13.794 58.2059 12 56 12ZM56 18C54.897 18 53.9999 17.1031 53.9999 16C53.9999 14.897 54.8969 13.9999 56 13.9999C57.1031 13.9999 58 14.8969 58 16C57.9999 17.1031 57.1029 18 56 18Z" fill="#25BB41"/>
<path d="M3.99996 45C1.79402 45 0 46.794 0 49C0 51.2059 1.79402 52.9999 3.99996 52.9999C6.20602 52.9999 7.99992 51.2059 7.99992 49C7.99992 46.794 6.20602 45 3.99996 45ZM3.99996 51C2.89699 51 1.99992 50.103 1.99992 49C1.99992 47.8969 2.89687 46.9999 3.99996 46.9999C5.10293 46.9999 6 47.8969 6 49C6 50.103 5.10305 51 3.99996 51Z" fill="#25BB41"/>
<path d="M54.061 13.264L45.4341 9.09902C44.936 8.85797 44.3391 9.06797 44.0991 9.56508C43.8591 10.0621 44.068 10.6601 44.5651 10.9001L53.1921 15.065C53.3321 15.133 53.4801 15.165 53.626 15.165C53.998 15.165 54.3551 14.957 54.527 14.599C54.767 14.102 54.558 13.504 54.061 13.264Z" fill="#25BB41"/>
<path d="M45 52C42.7939 52 41 53.794 41 56C41 58.2059 42.7939 60.0001 45 60.0001C47.206 60.0001 48.9999 58.206 48.9999 56.0001C48.9999 53.7941 47.206 52 45 52ZM45 58C43.897 58 42.9999 57.1031 42.9999 56C42.9999 54.8969 43.897 54 45 54C46.1029 54 47 54.897 47 56.0001C47 57.1032 46.1029 58 45 58Z" fill="#25BB41"/>
<path d="M43.0611 53.2641L34.4341 49.0992C33.936 48.8581 33.3391 49.0672 33.0991 49.5652C32.8591 50.0622 33.068 50.6602 33.5651 50.9002L42.1921 55.0652C42.3321 55.1332 42.4802 55.1652 42.6261 55.1652C42.998 55.1652 43.3551 54.9571 43.5271 54.5991C43.767 54.102 43.558 53.5041 43.0611 53.2641Z" fill="#25BB41"/>
<path d="M30 27C27.7939 27 26 28.794 26 31C26 33.206 27.794 34.9999 30 34.9999C32.206 34.9999 33.9999 33.2059 33.9999 31C33.9999 28.794 32.206 27 30 27ZM30 33C28.897 33 27.9999 32.103 27.9999 31C27.9999 29.897 28.8969 28.9999 30 28.9999C31.1029 28.9999 32 29.8969 32 31C32 32.103 31.1029 33 30 33Z" fill="#25BB41"/>
<path d="M28.242 28.3759L21.615 23.2109C21.179 22.8738 20.5511 22.9488 20.211 23.3849C19.872 23.821 19.949 24.4488 20.385 24.7889L27.012 29.9539C27.195 30.096 27.411 30.165 27.626 30.165C27.924 30.165 28.2181 30.033 28.416 29.78C28.755 29.3439 28.678 28.7159 28.242 28.3759Z" fill="#25BB41"/>
<path d="M48 26.0001C41.935 26.0001 37 30.9351 37 37.0002C37 43.0652 41.935 48.0002 48 48.0002C54.0651 48.0002 59.0001 43.0652 59.0001 37.0002C59.0001 30.9351 54.0651 26.0001 48 26.0001ZM48 46C43.037 46 39 41.9631 39 37C39 32.037 43.037 28 48 28C52.963 28 57 32.037 57 37C57 41.9631 52.963 46 48 46Z" fill="#25BB41"/>
<path d="M48 30C45.7939 30 44 31.794 44 34C44 36.206 45.794 37.9999 48 37.9999C50.206 37.9999 51.9999 36.2059 51.9999 34C51.9999 31.794 50.206 30 48 30ZM48 36C46.897 36 45.9999 35.103 45.9999 34C45.9999 32.897 46.8969 31.9999 48 31.9999C49.1029 31.9999 50 32.8969 50 34C50 35.103 49.1029 36 48 36Z" fill="#25BB41"/>
<path d="M50.901 40H45.099C43.3901 40 42 41.353 42 43.015V45.651C42 46.008 42.19 46.338 42.499 46.517C44.175 47.487 46.077 48 48 48C49.923 48 51.825 47.487 53.501 46.517C53.81 46.339 54 46.008 54 45.6521V43.0161C54 41.353 52.61 40 50.901 40ZM52 45.055C49.511 46.295 46.489 46.295 43.9999 45.055V43.0161C43.9999 42.456 44.4929 42 45.0989 42H50.9009C51.5068 42 51.9998 42.456 51.9998 43.0161V45.055H52Z" fill="#25BB41"/>
<path d="M23.9998 38C17.9348 38 12.9998 42.935 12.9998 49C12.9998 55.0651 17.9348 60 23.9998 60C30.0648 60 34.9998 55.065 34.9998 48.9999C34.9998 42.9349 30.0648 38 23.9998 38ZM23.9998 57.9999C19.0368 57.9999 14.9998 53.9629 14.9998 48.9999C14.9998 44.0369 19.0368 39.9999 23.9998 39.9999C28.9628 39.9999 32.9998 44.0369 32.9998 48.9999C32.9998 53.9629 28.9628 57.9999 23.9998 57.9999Z" fill="#25BB41"/>
<path d="M24 42C21.7939 42 20 43.794 20 46C20 48.206 21.794 49.9999 24 49.9999C26.2059 49.9999 27.9999 48.2059 27.9999 46C27.9999 43.794 26.206 42 24 42ZM24 48C22.897 48 21.9999 47.103 21.9999 46C21.9999 44.897 22.8969 43.9999 24 43.9999C25.1029 43.9999 26 44.8969 26 46C26 47.103 25.1029 48 24 48Z" fill="#25BB41"/>
<path d="M26.901 52H21.099C19.3901 52 18 53.3531 18 55.015V57.651C18 58.008 18.19 58.338 18.499 58.517C20.175 59.487 22.077 60.0001 24 60.0001C25.923 60.0001 27.825 59.487 29.501 58.517C29.81 58.339 30 58.0081 30 57.6521V55.0161C30 53.3531 28.61 52 26.901 52ZM28 57.055C25.5109 58.295 22.489 58.295 19.9999 57.055V55.0161C19.9999 54.456 20.4929 54 21.0989 54H26.9009C27.5068 54 27.9998 54.456 27.9998 55.0161V57.055H28Z" fill="#25BB41"/>
<path d="M11 13C4.935 13 0 17.935 0 24C0 30.0651 4.935 35.0001 11 35.0001C17.0651 35.0001 22.0001 30.0651 22.0001 24C22 17.935 17.065 13 11 13ZM11 33C6.03703 33 2.00004 28.963 2.00004 24C2.00004 19.037 6.03703 15 11 15C15.963 15 20 19.037 20 24C20 28.963 15.963 33 11 33Z" fill="#25BB41"/>
<path d="M11.0002 17C8.79415 17 7.00024 18.794 7.00024 21C7.00024 23.2059 8.79427 24.9999 11.0002 24.9999C13.2063 24.9999 15.0002 23.2059 15.0002 21C15.0002 18.794 13.2061 17 11.0002 17ZM11.0002 23C9.89724 23 9.00017 22.103 9.00017 21C9.00017 19.8969 9.89712 18.9999 11.0002 18.9999C12.1032 18.9999 13.0002 19.8969 13.0002 21C13.0002 22.103 12.1032 23 11.0002 23Z" fill="#25BB41"/>
<path d="M13.901 27H8.09903C6.39008 27 5 28.353 5 30.015V32.651C5 33.008 5.18996 33.338 5.49898 33.517C7.175 34.487 9.07696 35 11 35C12.9231 35 14.825 34.487 16.501 33.517C16.81 33.339 17 33.008 17 32.6521V30.0161C17 28.353 15.6099 27 13.901 27ZM15 32.055C12.511 33.295 9.48899 33.295 6.99992 32.055V30.0161C6.99992 29.456 7.49293 29 8.09891 29H13.9009C14.5068 29 14.9999 29.456 14.9999 30.0161V32.055H15Z" fill="#25BB41"/>
<path d="M35 0C28.935 0 24 4.935 24 11C24 17.0651 28.935 22.0001 35 22.0001C41.0651 22.0001 46.0001 17.0651 46.0001 11C45.9999 4.935 41.065 0 35 0ZM35 20C30.037 20 26 15.963 26 11C26 6.03703 30.037 2.00004 35 2.00004C39.963 2.00004 44 6.03703 44 11C44 15.963 39.963 20 35 20Z" fill="#25BB41"/>
<path d="M35.0002 3.99988C32.7941 3.99988 31.0002 5.7939 31.0002 7.99984C31.0002 10.2058 32.7943 11.9998 35.0002 11.9998C37.2061 11.9998 39.0002 10.2059 39.0002 7.99996C39.0002 5.79402 37.2061 3.99988 35.0002 3.99988ZM35.0002 9.99988C33.8972 9.99988 33.0002 9.10292 33.0002 7.99984C33.0002 6.89687 33.8971 5.9998 35.0002 5.9998C36.1033 5.9998 37.0002 6.89675 37.0002 7.99984C37.0001 9.10292 36.1032 9.99988 35.0002 9.99988Z" fill="#25BB41"/>
<path d="M37.901 14H32.099C30.3901 14 29 15.353 29 17.015V19.651C29 20.008 29.19 20.338 29.499 20.517C31.175 21.487 33.0769 22 35 22C36.923 22 38.825 21.487 40.501 20.517C40.81 20.339 41 20.008 41 19.6521V17.0161C41 15.3529 39.6099 14 37.901 14ZM38.9999 19.055C36.511 20.295 33.489 20.295 30.9999 19.055V17.0161C30.9999 16.456 31.4929 16 32.0989 16H37.9008C38.5068 16 38.9998 16.456 38.9998 17.0161V19.055H38.9999Z" fill="#25BB41"/>
<path d="M25.761 10.3489C25.402 9.93093 24.771 9.88089 24.351 10.24L17.421 16.17C17.001 16.5289 16.952 17.16 17.3109 17.58C17.509 17.811 17.7889 17.93 18.0709 17.93C18.3009 17.93 18.5319 17.8511 18.7209 17.689L25.6509 11.7589C26.071 11.4 26.12 10.7689 25.761 10.3489Z" fill="#25BB41"/>
<path d="M47.8 26.4011L41.8 18.4011C41.4689 17.9581 40.842 17.871 40.4 18.201C39.9579 18.5321 39.869 19.159 40.1999 19.6L46.1999 27.6C46.3969 27.8621 46.6969 28 47.0009 28C47.2089 28 47.42 27.935 47.5999 27.8C48.042 27.469 48.131 26.8421 47.8 26.4011Z" fill="#25BB41"/>
<path d="M39.593 40.3069C39.2619 39.8649 38.635 39.776 38.193 40.1069L32.607 44.2959C32.165 44.6269 32.076 45.2539 32.4069 45.6949C32.6039 45.9569 32.9039 46.0948 33.2079 46.0948C33.4169 46.0948 33.6269 46.0289 33.807 45.8948L39.393 41.7058C39.835 41.375 39.9241 40.7479 39.593 40.3069Z" fill="#25BB41"/>
<path d="M14 48H6.99996C6.44801 48 6 48.447 6 49C6 49.553 6.44801 49.9999 6.99996 49.9999H13.9999C14.5519 49.9999 14.9999 49.553 14.9999 49C14.9999 48.447 14.552 48 14 48Z" fill="#25BB41"/>
<path d="M11.0001 0C8.79402 0 7 1.79402 7 3.99996C7 6.20602 8.79402 7.99992 11 7.99992C13.206 7.99992 14.9999 6.2059 14.9999 3.99996C15 1.79402 13.206 0 11.0001 0ZM11.0001 6C9.89711 6 9.00004 5.10305 9.00004 3.99996C9.00004 2.89699 9.89699 1.99992 11.0001 1.99992C12.103 1.99992 13.0001 2.89687 13.0001 3.99996C13 5.10305 12.103 6 11.0001 6Z" fill="#25BB41"/>
<path d="M11 6C10.448 6 10 6.44695 10 6.99996V13.9999C10 14.5529 10.448 14.9999 11 14.9999C11.5519 14.9999 11.9999 14.5529 11.9999 13.9999V6.99996C11.9999 6.44695 11.5519 6 11 6Z" fill="#25BB41"/>
</g>
<defs>
<clipPath id="clip0">
<rect width="60" height="60" fill="white"/>
</clipPath>
</defs>
</svg>
