<svg width="40" height="40" viewBox="0 0 40 40" fill="none" xmlns="http://www.w3.org/2000/svg">
<path fill-rule="evenodd" clip-rule="evenodd" d="M40 20C40 31.0457 31.0457 40 20 40C8.9543 40 0 31.0457 0 20C0 8.9543 8.9543 0 20 0C31.0457 0 40 8.9543 40 20ZM28.435 12.1317L9.15162 19.5667C7.82995 20.0834 7.85328 20.815 8.92495 21.155L13.8616 22.695L25.3133 15.485C25.8449 15.1317 26.3383 15.3317 25.9349 15.6867L16.6683 24.0584L16.3133 29.1467C16.83 29.1467 17.0549 28.9217 17.3216 28.655L19.7333 26.3317L24.7333 30.0167C25.6449 30.5333 26.2966 30.2667 26.5399 29.17L29.8233 13.7017L29.8216 13.7034C30.1116 12.35 29.33 11.8084 28.435 12.1317Z" fill="#25BB41"/>
</svg>
